<?xml version="1.0" encoding="utf-8"?>
<!-- Generator: Adobe Illustrator 24.1.2, SVG Export Plug-In . SVG Version: 6.00 Build 0)  -->
<svg version="1.1" id="Слой_1" xmlns="http://www.w3.org/2000/svg" xmlns:xlink="http://www.w3.org/1999/xlink" x="0px" y="0px"
	 viewBox="0 0 192 192" style="enable-background:new 0 0 192 192;" xml:space="preserve">
<style type="text/css">
	.st0{fill:#01BAFE;}
</style>
<g>
	<path class="st0" d="M101.04-0.06c1.06,1.16,2.56,0.76,3.84,1.15c3.15,0.95,6.42,1.66,9.07,3.89c1.34,1.13,3.05,1.84,4.33,3.03
		c1.39,1.27,2.68,2.75,3.63,4.36c1.38,2.33,2.26,4.96,3.63,7.29c0.85,1.44,0.67,3.07,1.23,4.57c0.62,1.68,1.02,3.67,1.3,5.59
		c0.76,5.27,0.81,10.54,0.98,15.83c0.05,1.53,1.53,2.76,2.23,4.21c1.2,2.49,0.33,4.28-0.59,6.32c-1.44,3.19-2.53,6.58-4.3,9.57
		c-1.76,2.97-1.9,6.57-4.22,9.31c-1.65,1.95-2.65,4.44-4.25,6.45c-1.2,1.51-2.99,2.53-4.32,3.96c-2.84,3.05-6.33,4.93-10.05,6.75
		c-3.94,1.92-7.91,1.61-11.96,1.92c-3.41,0.27-6.68-0.43-9.73-1.47c-2.56-0.87-4.92-2.55-7.18-4.38c-2.38-1.93-4.84-3.79-6.83-6.07
		c-3.01-3.44-6-6.89-7.45-11.47c-1.22-3.86-2.72-7.76-4.87-11.16c-1.52-2.41-2.26-4.74-2.53-7.42c-0.22-2.22,0.4-4.08,2.13-5.53
		c0.63-0.53,0.76-1.2,0.77-2.01c0.04-4.79-0.05-9.6,0.3-14.38c0.24-3.23,0.57-6.66,1.87-9.55c1.73-3.87,3.17-8.06,6.33-11.14
		c3.72-3.64,7.77-6.74,13.11-7.73c2.51-0.47,4.96-1.26,7.44-1.91C90.32-0.06,95.68-0.06,101.04-0.06z M92.29,88.98
		c1.93,0.03,3.76-0.38,5.65-0.79c1.94-0.42,3.55-1.19,5.28-2.07c3.32-1.69,6.5-3.66,8.7-6.56c2.25-2.97,4.91-5.56,6.48-9.25
		c1.56-3.67,2.63-7.62,4.73-11.08c0.96-1.58,1.6-3.27,2.27-5c0.79-2.05,1.2-3.54-0.91-4.76c-1.48-0.86-3.07-0.83-4.41,0.24
		c-1.34,1.07-4.69,0.25-5.14-1.37c-0.64-2.34-1.58-3.67-4.61-3.47c-8.39,0.56-16.76,0.22-25.07-1.56c-3.5-0.75-7.22-0.21-10.6-2.11
		c-0.6-0.34-2.79-1.04-3.42,0.5c-0.8,1.94-1.93,3.71-2.47,5.83c-0.47,1.83-2.33,3.28-4.59,2.13c-1.89-0.96-4.01-0.97-4.85,0.61
		c-0.75,1.4-0.77,4.04,0.1,5.29c1.83,2.63,3.21,5.54,4.33,8.37c1.42,3.61,2.86,7.04,5.06,10.29c2.52,3.71,5.28,7.09,8.98,9.59
		C82.15,86.76,86.83,89,92.29,88.98z"/>
	<path class="st0" d="M93.97,178.98c-11.23,0-22.47-0.04-33.7,0.04c-1.78,0.01-2.21-0.45-2.19-2.23c0.08-12.63,0.05-25.27,0.02-37.9
		c0-1.34,0.48-1.93,1.89-1.93c22.67,0.02,45.33,0.02,68-0.01c1.48,0,2.04,0.32,2.03,1.96c-0.07,12.71-0.07,25.43,0,38.14
		c0.01,1.62-0.51,1.97-1.99,1.96C116.68,178.96,105.32,178.98,93.97,178.98z"/>
	<path class="st0" d="M49.05,155.51c0,7.36-0.02,14.71,0.02,22.07c0.01,1.06-0.23,1.43-1.37,1.42c-6-0.07-12,0.07-17.99-0.15
		c-2.78-0.1-4.83-1.8-6.74-3.94c-2.71-3.05-3.25-6.42-3.02-10.27c0.15-2.58,2.06-4.36,2.42-6.9c0.46-3.22,1.71-6.34,2.66-9.49
		c0.63-2.11,1.37-4.18,1.98-6.29c1.09-3.73,2.57-7.31,3.23-11.22c0.58-3.42,2.61-6.56,3.5-9.96c0.58-2.23,1.75-4.32,2.03-6.53
		c0.53-4.2,2.84-7.82,3.4-12.03c0.37-2.81,1.65-5.61,3.03-8.13c0.74-1.35,2.6-2.06,3.88-3.14c3.35-2.82,7.71-1.78,11.43-3.06
		c2.79-0.96,5.55-1.82,8.5-1.97c0.94-0.05,1.65,0.21,1.86,1.22c0.51,2.37,2.05,4.18,3.25,6.19c1.1,1.86,1.9,3.9,2.91,5.81
		c1.21,2.28,2.54,4.5,3.76,6.78c1.14,2.11,2.14,4.29,3.32,6.37c1.48,2.6,3.16,5.1,4.62,7.71c1.19,2.12,2.27,4.31,3.26,6.53
		c0.4,0.9-0.05,1.38-1.19,1.38c-10.64-0.04-21.27,0.06-31.91-0.08c-2.93-0.04-4.02,2.31-5.9,3.63c-1.55,1.09-0.94,2.78-0.95,4.24
		C49.02,142.32,49.04,148.91,49.05,155.51z"/>
	<path class="st0" d="M138.97,155.82c0-6.96-0.15-13.92,0.07-20.87c0.09-2.98-2.59-3.83-3.6-5.93c-0.9-1.86-2.85-1.1-4.36-1.1
		c-11.19-0.05-22.39-0.02-33.58-0.03c-0.49,0-1.39-0.13-1.39-0.24c-0.04-0.68-0.12-1.57,0.26-2.04c2.5-3.11,3.96-6.76,5.72-10.28
		c2.51-5.04,5.27-9.96,7.99-14.88c1.91-3.46,3.7-7.05,6.04-10.21c1.08-1.45,0.65-4.91,3.91-4.1c3.77,0.94,7.61,1.44,11.38,2.2
		c1.93,0.39,4.32-0.12,5.88,1.24c2.4,2.09,5.48,3.34,6.88,6.72c1.39,3.35,1.41,7.08,3.02,10.23c2.39,4.67,2.95,9.84,4.58,14.71
		c1.25,3.74,2.87,7.39,3.46,11.44c0.52,3.56,2.4,6.91,3.54,10.4c0.47,1.45,0.57,2.97,1.11,4.46c0.59,1.62,1.49,3.22,1.79,4.77
		c0.28,1.48,1.2,2.72,1.24,4.19c0.06,2.16,1.38,4.03,1.68,5.94c0.44,2.84,1.06,5.8-0.34,8.89c-1.14,2.51-2.38,4.62-4.7,5.97
		c-1.27,0.74-2.76,1.48-4.18,1.53c-5.19,0.19-10.39,0.08-15.59,0.13c-1.02,0.01-0.81-0.66-0.81-1.21
		C138.96,170.45,138.97,163.13,138.97,155.82z"/>
	<path class="st0" d="M92.76,191.93c-17.47,0-34.95-0.01-52.42,0.02c-1.02,0-1.36-0.22-1.37-1.3c-0.12-7.67-0.14-7.67,7.5-7.67
		c32.71,0,65.42,0.01,98.13-0.03c1.7,0,2.28,0.47,2.24,2.23c-0.15,6.74-0.09,6.75-6.93,6.75
		C124.19,191.93,108.48,191.93,92.76,191.93z"/>
</g>
</svg>
